<svg width="33" height="32" viewBox="0 0 33 32" fill="none" xmlns="http://www.w3.org/2000/svg">
<path fill-rule="evenodd" clip-rule="evenodd" d="M21.68 1.13552C21.4795 0.995204 21.2231 0.961543 20.9932 1.04534L20.9931 1.04537L20.9926 1.04555L20.9898 1.04658L20.9772 1.05112L20.9249 1.06983C20.8782 1.08646 20.8079 1.11122 20.7157 1.14314C20.5313 1.20699 20.259 1.29941 19.9112 1.41251C19.2154 1.63876 18.2182 1.94741 17.0171 2.27534C14.6107 2.93235 11.4052 3.66145 8.17499 3.96564C6.18278 4.15325 4.50002 5.77353 4.50002 7.85872L4.5 26.753C4.5 28.658 5.94379 30.2886 7.8469 30.3826C7.96332 30.4569 8.10162 30.5 8.25 30.5H26.25C27.2165 30.5 28 29.7165 28 28.75V4.75C28 3.7835 27.2165 3 26.25 3H22.2206C22.1438 3 22.0697 3.01153 22 3.03297V1.75C22 1.50523 21.8806 1.27586 21.68 1.13552ZM22 4.46703V26.6389C22 26.9417 21.8179 27.2148 21.5385 27.3312L21.25 26.6389C21.5385 27.3312 21.5383 27.3313 21.5382 27.3313L21.5377 27.3315L21.5364 27.332L21.5323 27.3338L21.5177 27.3398L21.4637 27.3617C21.4168 27.3806 21.3482 27.408 21.2591 27.4426C21.0808 27.512 20.8201 27.6109 20.4857 27.7309C19.8169 27.9708 18.8522 28.2956 17.6601 28.6382C17.2451 28.7575 16.8023 28.879 16.3344 29H26.25C26.3881 29 26.5 28.8881 26.5 28.75V4.75C26.5 4.61193 26.3881 4.5 26.25 4.5H22.2206C22.1438 4.5 22.0697 4.48847 22 4.46703ZM20.3751 2.83899L20.5 2.7982V26.1273C20.3572 26.1813 20.1829 26.2459 19.9791 26.319C19.3366 26.5495 18.4028 26.864 17.2457 27.1966C14.929 27.8625 11.7294 28.5974 8.18777 28.8801C7.01024 28.9741 6 28.0108 6 26.753L6.00002 7.85872C6.00002 6.63021 7.00871 5.58211 8.31562 5.45904C11.664 5.14372 14.9609 4.39165 17.4122 3.72237C18.6399 3.38715 19.6604 3.07138 20.3751 2.83899Z" fill="#22363D" fill-opacity="0.2"/>
</svg>
