<svg width="18" height="18" viewBox="0 0 18 18" fill="none" xmlns="http://www.w3.org/2000/svg">
<path d="M6.58915 14.9885L1.44629 16.4285L2.88629 11.2856L12.3034 1.91417C12.4099 1.80532 12.537 1.71883 12.6773 1.65978C12.8176 1.60073 12.9683 1.57031 13.1206 1.57031C13.2728 1.57031 13.4235 1.60073 13.5638 1.65978C13.7042 1.71883 13.8313 1.80532 13.9377 1.91417L15.9606 3.94846C16.0677 4.0547 16.1527 4.1811 16.2107 4.32037C16.2688 4.45964 16.2986 4.60901 16.2986 4.75988C16.2986 4.91076 16.2688 5.06013 16.2107 5.1994C16.1527 5.33867 16.0677 5.46507 15.9606 5.57131L6.58915 14.9885Z" stroke="#A2016E" stroke-width="1.5" stroke-linecap="round" stroke-linejoin="round"/>
</svg>
