<svg width="33" height="32" viewBox="0 0 33 32" fill="none" xmlns="http://www.w3.org/2000/svg">
<path d="M24.5769 4L31.5 10.8376L26.8846 15.396L24.5769 13.1168L24.5769 29H8.42308L8.42308 13.1168L6.11538 15.396L1.5 10.8376L8.42308 4H12.4616C12.4616 4 13.4712 7.56134 16.5 7.56134C19.5289 7.56134 20.5385 4 20.5385 4H24.5769Z" fill="url(#paint0_linear_1039_1244)" fill-opacity="0.8"/>
<path d="M24.8404 3.73319C24.7702 3.66387 24.6756 3.625 24.5769 3.625H20.5385C20.3708 3.625 20.2236 3.73626 20.1777 3.89749L20.1777 3.89772L20.1776 3.89806L20.176 3.90338L20.1684 3.92836C20.1613 3.95116 20.1501 3.98594 20.1346 4.03097C20.1036 4.1211 20.0554 4.25189 19.9883 4.40972C19.8536 4.72645 19.645 5.14637 19.3491 5.56384C18.7554 6.40153 17.8452 7.18634 16.5 7.18634C15.1548 7.18634 14.2446 6.40153 13.6509 5.56383C13.3551 5.14637 13.1464 4.72644 13.0117 4.40971C12.9446 4.25189 12.8965 4.1211 12.8654 4.03097C12.8499 3.98593 12.8388 3.95116 12.8316 3.92836L12.824 3.90338L12.8225 3.89805L12.8224 3.89772C12.8223 3.89764 12.8223 3.89756 12.8223 3.89748L12.8223 3.89737C12.7764 3.7362 12.6292 3.625 12.4616 3.625H8.42308C8.32443 3.625 8.22975 3.66387 8.15956 3.73319L1.23649 10.5708C1.16515 10.6412 1.125 10.7373 1.125 10.8376C1.125 10.9378 1.16515 11.0339 1.23649 11.1044L5.85187 15.6628C5.99793 15.807 6.23284 15.807 6.3789 15.6628L8.04808 14.0142L8.04808 29C8.04808 29.0995 8.08759 29.1948 8.15791 29.2652C8.22824 29.3355 8.32362 29.375 8.42308 29.375H24.5769C24.784 29.375 24.9519 29.2071 24.9519 29L24.9519 14.0142L26.6211 15.6628C26.7672 15.807 27.0021 15.807 27.1481 15.6628L31.7635 11.1044C31.8348 11.0339 31.875 10.9378 31.875 10.8376C31.875 10.7373 31.8348 10.6412 31.7635 10.5708L24.8404 3.73319Z" stroke="url(#paint1_linear_1039_1244)" stroke-opacity="0.8" stroke-width="0.75" stroke-linejoin="round"/>
<defs>
<linearGradient id="paint0_linear_1039_1244" x1="3.84375" y1="28.9341" x2="28.2353" y2="8.37728" gradientUnits="userSpaceOnUse">
<stop stop-color="#0000FF"/>
<stop offset="0.111111" stop-color="#0600F9"/>
<stop offset="0.222222" stop-color="#1700EA"/>
<stop offset="0.333333" stop-color="#2E00D4"/>
<stop offset="0.444444" stop-color="#4F00B7"/>
<stop offset="0.555556" stop-color="#720096"/>
<stop offset="0.666667" stop-color="#950074"/>
<stop offset="0.777778" stop-color="#BC0051"/>
<stop offset="0.888889" stop-color="#DF0030"/>
<stop offset="1" stop-color="#FF0011"/>
</linearGradient>
<linearGradient id="paint1_linear_1039_1244" x1="3.84375" y1="28.9341" x2="28.2353" y2="8.37728" gradientUnits="userSpaceOnUse">
<stop stop-color="#0000FF"/>
<stop offset="0.111111" stop-color="#0600F9"/>
<stop offset="0.222222" stop-color="#1700EA"/>
<stop offset="0.333333" stop-color="#2E00D4"/>
<stop offset="0.444444" stop-color="#4F00B7"/>
<stop offset="0.555556" stop-color="#720096"/>
<stop offset="0.666667" stop-color="#950074"/>
<stop offset="0.777778" stop-color="#BC0051"/>
<stop offset="0.888889" stop-color="#DF0030"/>
<stop offset="1" stop-color="#FF0011"/>
</linearGradient>
</defs>
</svg>
