<svg width="33" height="32" viewBox="0 0 33 32" fill="none" xmlns="http://www.w3.org/2000/svg">
<path d="M30.4199 13.7868C30.4199 12.5284 29.6555 11.3963 28.4883 10.926L24.2089 9.20158C23.0687 8.74214 21.8255 9.5815 21.8255 10.8108V20.8192C21.8255 22.0761 22.5883 23.2074 23.7537 23.6786L29.025 25.8101C29.5541 26.024 29.5724 26.7665 29.0545 27.0063C29.8881 26.613 30.4199 25.7739 30.4199 24.8522V13.7868Z" fill="url(#paint0_linear_1141_11284)" fill-opacity="0.7"/>
<path d="M2.5 7.63091C2.5 6.33686 3.30778 5.1804 4.52278 4.73501L15.1077 0.854872C16.2399 0.439832 17.4398 1.27792 17.4398 2.48382V12.524C17.4398 13.8078 16.6445 14.9574 15.4431 15.4102L4.17175 19.658C3.72045 19.828 3.53473 20.3663 3.78514 20.7785C2.99738 20.3836 2.5 19.5778 2.5 18.6966V7.63091Z" fill="url(#paint1_linear_1141_11284)" fill-opacity="0.6"/>
<path d="M2.5 7.63091C2.5 6.33686 3.30778 5.1804 4.52278 4.73501L15.1077 0.854872C16.2399 0.439832 17.4398 1.27792 17.4398 2.48382V12.524C17.4398 13.8078 16.6445 14.9574 15.4431 15.4102L4.17175 19.658C3.72045 19.828 3.53473 20.3663 3.78514 20.7785C2.99738 20.3836 2.5 19.5778 2.5 18.6966V7.63091Z" fill="url(#paint2_linear_1141_11284)" fill-opacity="0.4"/>
<path d="M2.5 18.2132C2.5 19.4716 3.26442 20.6037 4.43158 21.074L8.71101 22.7984C9.85121 23.2579 11.0944 22.4185 11.0944 21.1892V11.1808C11.0944 9.92386 10.3316 8.79263 9.16627 8.32142L3.89497 6.18993C3.36581 5.97596 3.3475 5.23349 3.86546 4.99369C3.03184 5.38704 2.5 6.22606 2.5 7.14782V18.2132Z" fill="url(#paint3_linear_1141_11284)" fill-opacity="0.8"/>
<path d="M30.4199 24.3691C30.4199 25.6631 29.6121 26.8196 28.3971 27.265L17.8122 31.1451C16.68 31.5602 15.4802 30.7221 15.4802 29.5162V19.476C15.4802 18.1922 16.2754 17.0426 17.4768 16.5898L28.7482 12.342C29.1995 12.172 29.3852 11.6337 29.1348 11.2215C29.9225 11.6164 30.4199 12.4222 30.4199 13.3034V24.3691Z" fill="url(#paint4_linear_1141_11284)" fill-opacity="0.8"/>
<path d="M30.4199 24.3691C30.4199 25.6631 29.6121 26.8196 28.3971 27.265L17.8122 31.1451C16.68 31.5602 15.4802 30.7221 15.4802 29.5162V19.476C15.4802 18.1922 16.2754 17.0426 17.4768 16.5898L28.7482 12.342C29.1995 12.172 29.3852 11.6337 29.1348 11.2215C29.9225 11.6164 30.4199 12.4222 30.4199 13.3034V24.3691Z" fill="url(#paint5_linear_1141_11284)" fill-opacity="0.6"/>
<defs>
<linearGradient id="paint0_linear_1141_11284" x1="29.0002" y1="19.4995" x2="22.2698" y2="20.146" gradientUnits="userSpaceOnUse">
<stop stop-color="#1C1CFF"/>
<stop offset="0.0735749" stop-color="#3419E6"/>
<stop offset="0.137405" stop-color="#4917D1"/>
<stop offset="0.193512" stop-color="#5A16BF"/>
<stop offset="0.243916" stop-color="#6815B1"/>
<stop offset="0.290639" stop-color="#7413A5"/>
<stop offset="0.335701" stop-color="#7E129A"/>
<stop offset="0.381124" stop-color="#881291"/>
<stop offset="0.428928" stop-color="#911187"/>
<stop offset="0.481134" stop-color="#9A107E"/>
<stop offset="0.539764" stop-color="#A50F73"/>
<stop offset="0.606838" stop-color="#B10E66"/>
<stop offset="0.684378" stop-color="#C00C58"/>
<stop offset="0.774404" stop-color="#D10B46"/>
<stop offset="0.878938" stop-color="#E60931"/>
<stop offset="1" stop-color="#FF0617"/>
</linearGradient>
<linearGradient id="paint1_linear_1141_11284" x1="5" y1="13" x2="18.1226" y2="11.2807" gradientUnits="userSpaceOnUse">
<stop stop-color="#1C1CFF"/>
<stop offset="0.0735749" stop-color="#3419E6"/>
<stop offset="0.137405" stop-color="#4917D1"/>
<stop offset="0.193512" stop-color="#5A16BF"/>
<stop offset="0.243916" stop-color="#6815B1"/>
<stop offset="0.290639" stop-color="#7413A5"/>
<stop offset="0.335701" stop-color="#7E129A"/>
<stop offset="0.381124" stop-color="#881291"/>
<stop offset="0.428928" stop-color="#911187"/>
<stop offset="0.481134" stop-color="#9A107E"/>
<stop offset="0.539764" stop-color="#A50F73"/>
<stop offset="0.606838" stop-color="#B10E66"/>
<stop offset="0.684378" stop-color="#C00C58"/>
<stop offset="0.774404" stop-color="#D10B46"/>
<stop offset="0.878938" stop-color="#E60931"/>
<stop offset="1" stop-color="#FF0617"/>
</linearGradient>
<linearGradient id="paint2_linear_1141_11284" x1="17.4398" y1="1.73893" x2="2.4542" y2="18.9998" gradientUnits="userSpaceOnUse">
<stop stop-color="#FF001F" stop-opacity="0.941176"/>
<stop offset="1" stop-color="#FF0011" stop-opacity="0"/>
</linearGradient>
<linearGradient id="paint3_linear_1141_11284" x1="2.5" y1="10.5004" x2="10.9597" y2="10.4507" gradientUnits="userSpaceOnUse">
<stop stop-color="#1C1CFF"/>
<stop offset="0.0735749" stop-color="#3419E6"/>
<stop offset="0.137405" stop-color="#4917D1"/>
<stop offset="0.193512" stop-color="#5A16BF"/>
<stop offset="0.243916" stop-color="#6815B1"/>
<stop offset="0.290639" stop-color="#7413A5"/>
<stop offset="0.335701" stop-color="#7E129A"/>
<stop offset="0.381124" stop-color="#881291"/>
<stop offset="0.428928" stop-color="#911187"/>
<stop offset="0.481134" stop-color="#9A107E"/>
<stop offset="0.539764" stop-color="#A50F73"/>
<stop offset="0.606838" stop-color="#B10E66"/>
<stop offset="0.684378" stop-color="#C00C58"/>
<stop offset="0.774404" stop-color="#D10B46"/>
<stop offset="0.878938" stop-color="#E60931"/>
<stop offset="1" stop-color="#FF0617"/>
</linearGradient>
<linearGradient id="paint4_linear_1141_11284" x1="25.5002" y1="15.5" x2="13.5721" y2="21.0967" gradientUnits="userSpaceOnUse">
<stop stop-color="#1C1CFF"/>
<stop offset="0.0735749" stop-color="#3419E6"/>
<stop offset="0.137405" stop-color="#4917D1"/>
<stop offset="0.193512" stop-color="#5A16BF"/>
<stop offset="0.243916" stop-color="#6815B1"/>
<stop offset="0.290639" stop-color="#7413A5"/>
<stop offset="0.335701" stop-color="#7E129A"/>
<stop offset="0.381124" stop-color="#881291"/>
<stop offset="0.428928" stop-color="#911187"/>
<stop offset="0.481134" stop-color="#9A107E"/>
<stop offset="0.539764" stop-color="#A50F73"/>
<stop offset="0.606838" stop-color="#B10E66"/>
<stop offset="0.684378" stop-color="#C00C58"/>
<stop offset="0.774404" stop-color="#D10B46"/>
<stop offset="0.878938" stop-color="#E60931"/>
<stop offset="1" stop-color="#FF0617"/>
</linearGradient>
<linearGradient id="paint5_linear_1141_11284" x1="18.1308" y1="17.2617" x2="30.4199" y2="17.2617" gradientUnits="userSpaceOnUse">
<stop stop-color="#FF001F" stop-opacity="0.941176"/>
<stop offset="1" stop-color="#FF0011" stop-opacity="0"/>
</linearGradient>
</defs>
</svg>
