<svg width="33" height="27" viewBox="0 0 33 27" fill="none" xmlns="http://www.w3.org/2000/svg">
<path d="M24.8404 0.733193C24.7702 0.663872 24.6756 0.625 24.5769 0.625H20.5385C20.3708 0.625 20.2236 0.736256 20.1777 0.897487L20.1777 0.897724L20.1776 0.898057L20.176 0.903385L20.1684 0.92836C20.1613 0.951164 20.1501 0.985938 20.1346 1.03097C20.1036 1.1211 20.0554 1.25189 19.9883 1.40972C19.8536 1.72645 19.645 2.14637 19.3491 2.56384C18.7554 3.40153 17.8452 4.18634 16.5 4.18634C15.1548 4.18634 14.2446 3.40153 13.6509 2.56383C13.3551 2.14637 13.1464 1.72644 13.0117 1.40971C12.9446 1.25189 12.8965 1.1211 12.8654 1.03097C12.8499 0.985935 12.8388 0.951161 12.8316 0.928357L12.824 0.903381L12.8225 0.898054L12.8224 0.897721C12.8223 0.897642 12.8223 0.897563 12.8223 0.897484L12.8223 0.897368C12.7764 0.736201 12.6292 0.625 12.4616 0.625H8.42308C8.32443 0.625 8.22975 0.663872 8.15956 0.733193L1.23649 7.57077C1.16515 7.64123 1.125 7.73731 1.125 7.83758C1.125 7.93784 1.16515 8.03393 1.23649 8.10439L5.85187 12.6628C5.99793 12.807 6.23284 12.807 6.3789 12.6628L8.04808 11.0142L8.04808 26C8.04808 26.0995 8.08759 26.1948 8.15791 26.2652C8.22824 26.3355 8.32362 26.375 8.42308 26.375H24.5769C24.784 26.375 24.9519 26.2071 24.9519 26L24.9519 11.0142L26.6211 12.6628C26.7672 12.807 27.0021 12.807 27.1481 12.6628L31.7635 8.10439C31.8348 8.03393 31.875 7.93784 31.875 7.83758C31.875 7.73731 31.8348 7.64123 31.7635 7.57077L24.8404 0.733193Z" fill="url(#paint0_linear_1141_12632)" stroke="url(#paint1_linear_1141_12632)" stroke-width="0.75" stroke-linejoin="round"/>
<defs>
<linearGradient id="paint0_linear_1141_12632" x1="3.84375" y1="25.9341" x2="28.2353" y2="5.37728" gradientUnits="userSpaceOnUse">
<stop stop-color="#1C1CFF"/>
<stop offset="0.0735749" stop-color="#3419E6"/>
<stop offset="0.137405" stop-color="#4917D1"/>
<stop offset="0.193512" stop-color="#5A16BF"/>
<stop offset="0.243916" stop-color="#6815B1"/>
<stop offset="0.290639" stop-color="#7413A5"/>
<stop offset="0.335701" stop-color="#7E129A"/>
<stop offset="0.381124" stop-color="#881291"/>
<stop offset="0.428928" stop-color="#911187"/>
<stop offset="0.481134" stop-color="#9A107E"/>
<stop offset="0.539764" stop-color="#A50F73"/>
<stop offset="0.606838" stop-color="#B10E66"/>
<stop offset="0.684378" stop-color="#C00C58"/>
<stop offset="0.774404" stop-color="#D10B46"/>
<stop offset="0.878938" stop-color="#E60931"/>
<stop offset="1" stop-color="#FF0617"/>
</linearGradient>
<linearGradient id="paint1_linear_1141_12632" x1="3.84375" y1="25.9341" x2="28.2353" y2="5.37728" gradientUnits="userSpaceOnUse">
<stop stop-color="#1C1CFF"/>
<stop offset="0.0735749" stop-color="#3419E6"/>
<stop offset="0.137405" stop-color="#4917D1"/>
<stop offset="0.193512" stop-color="#5A16BF"/>
<stop offset="0.243916" stop-color="#6815B1"/>
<stop offset="0.290639" stop-color="#7413A5"/>
<stop offset="0.335701" stop-color="#7E129A"/>
<stop offset="0.381124" stop-color="#881291"/>
<stop offset="0.428928" stop-color="#911187"/>
<stop offset="0.481134" stop-color="#9A107E"/>
<stop offset="0.539764" stop-color="#A50F73"/>
<stop offset="0.606838" stop-color="#B10E66"/>
<stop offset="0.684378" stop-color="#C00C58"/>
<stop offset="0.774404" stop-color="#D10B46"/>
<stop offset="0.878938" stop-color="#E60931"/>
<stop offset="1" stop-color="#FF0617"/>
</linearGradient>
</defs>
</svg>
