<svg width="49" height="48" viewBox="0 0 49 48" fill="none" xmlns="http://www.w3.org/2000/svg">
<path d="M46.9108 17.1426C46.9108 16.2333 46.5496 15.3613 45.9066 14.7183C45.2636 14.0753 44.3915 13.7141 43.4822 13.7141H36.6251L31.4822 6.85693H17.7679L12.6251 13.7141H5.76793C4.85861 13.7141 3.98654 14.0753 3.34356 14.7183C2.70058 15.3613 2.33936 16.2333 2.33936 17.1426V37.7141C2.33936 38.6234 2.70058 39.4955 3.34356 40.1384C3.98654 40.7814 4.85861 41.1426 5.76793 41.1426H43.4822C44.3915 41.1426 45.2636 40.7814 45.9066 40.1384C46.5496 39.4955 46.9108 38.6234 46.9108 37.7141V17.1426Z" stroke="#A2016E" stroke-opacity="0.6" stroke-width="2" stroke-linecap="round" stroke-linejoin="round"/>
<path d="M24.6249 33.4286C28.8854 33.4286 32.3392 29.9748 32.3392 25.7143C32.3392 21.4538 28.8854 18 24.6249 18C20.3644 18 16.9106 21.4538 16.9106 25.7143C16.9106 29.9748 20.3644 33.4286 24.6249 33.4286Z" stroke="#A2016E" stroke-opacity="0.6" stroke-width="2" stroke-linecap="round" stroke-linejoin="round"/>
</svg>
