<svg width="33" height="32" viewBox="0 0 33 32" fill="none" xmlns="http://www.w3.org/2000/svg">
<path fill-rule="evenodd" clip-rule="evenodd" d="M14.7965 2.27464C15.439 2.04039 16.1188 2.51613 16.1188 3.19999V12.394C16.1188 13.3672 15.515 14.2382 14.6037 14.5798L11.6074 15.7029V11.3797C11.6074 9.81443 10.6559 8.40631 9.20372 7.82227L4.6674 5.99792C4.77301 5.93938 4.88411 5.88854 5.00009 5.84626L14.7965 2.27464ZM3.46533 8.03938C3.46533 7.742 3.5217 7.45424 3.62593 7.18823C3.66775 7.21007 3.71137 7.23019 3.75679 7.24846L8.64403 9.21394C9.52814 9.5695 10.1074 10.4268 10.1074 11.3797V20.5423C10.1074 21.2394 9.40309 21.7159 8.75603 21.4565L4.93129 19.9237C4.04579 19.5689 3.46533 18.7109 3.46533 17.7569V16.5333V8.03938ZM3.72698 4.81327C3.96205 4.66228 4.2161 4.5355 4.48629 4.437L14.2827 0.865376C15.9036 0.274394 17.6188 1.47465 17.6188 3.19999V12.394C17.6188 13.9925 16.6271 15.4233 15.1302 15.9844L11.6074 17.3048V20.5423C11.6074 22.301 9.83052 23.5031 8.19803 22.8489L4.37329 21.3161C2.91879 20.7332 1.96533 19.3239 1.96533 17.7569V16.5333V8.03938V7.46162C1.96533 6.30674 2.62836 5.25524 3.66862 4.75691L3.69524 4.74434L3.72698 4.81327ZM22.8787 11.391C22.8787 10.6939 23.583 10.2175 24.23 10.4768L28.0548 12.0096C28.1035 12.0291 28.1512 12.0501 28.198 12.0726L22.8787 14.0664V11.391ZM21.3787 14.6286V11.391C21.3787 9.63232 23.1556 8.43018 24.7881 9.08442L28.6128 10.6172C28.8799 10.7243 29.1301 10.8592 29.3607 11.0179L29.3879 10.9632C30.3884 11.4621 31.0208 12.484 31.0208 13.602V14.1764V23.7332V23.8941C31.0208 25.5052 30.0135 26.9446 28.4998 27.4964L18.7034 31.0681C17.0824 31.659 15.3673 30.4588 15.3673 28.7334V19.5395C15.3673 17.9409 16.359 16.5101 17.8559 15.949L21.3787 14.6286ZM29.3072 13.2008C29.2013 13.2782 29.0829 13.3428 28.9529 13.3915L18.3823 17.3536C17.4711 17.6952 16.8673 18.5663 16.8673 19.5395V28.7334C16.8673 29.4173 17.5471 29.893 18.1896 29.6588L27.986 26.0872C28.9075 25.7512 29.5208 24.8749 29.5208 23.8941V23.7332V14.1764C29.5208 13.8324 29.4453 13.5008 29.3072 13.2008Z" fill="#22363D" fill-opacity="0.2"/>
</svg>
