<svg width="33" height="33" viewBox="0 0 33 33" fill="none" xmlns="http://www.w3.org/2000/svg">
<path fill-rule="evenodd" clip-rule="evenodd" d="M31 16.084C31 24.0921 24.5081 30.584 16.5 30.584C8.49187 30.584 2 24.0921 2 16.084C2 8.07586 8.49187 1.58398 16.5 1.58398C24.5081 1.58398 31 8.07586 31 16.084ZM32.5 16.084C32.5 24.9205 25.3366 32.084 16.5 32.084C7.66344 32.084 0.5 24.9205 0.5 16.084C0.5 7.24743 7.66344 0.0839844 16.5 0.0839844C25.3366 0.0839844 32.5 7.24743 32.5 16.084ZM22.25 7.08398C22.25 6.66977 22.5858 6.33398 23 6.33398C23.4142 6.33398 23.75 6.66977 23.75 7.08398V8.83398H25.5C25.9142 8.83398 26.25 9.16977 26.25 9.58398C26.25 9.9982 25.9142 10.334 25.5 10.334H23.75V12.084C23.75 12.4982 23.4142 12.834 23 12.834C22.5858 12.834 22.25 12.4982 22.25 12.084V10.334H20.5C20.0858 10.334 19.75 9.9982 19.75 9.58398C19.75 9.16977 20.0858 8.83398 20.5 8.83398H22.25V7.08398ZM12.7885 8.84681C12.8906 8.54056 13.1772 8.33398 13.5 8.33398C13.8228 8.33398 14.1094 8.54056 14.2115 8.84681L15.8429 13.7411L20.7372 15.3725C21.0434 15.4746 21.25 15.7612 21.25 16.084C21.25 16.4068 21.0434 16.6934 20.7372 16.7955L15.8429 18.4269L14.2115 23.3212C14.1094 23.6274 13.8228 23.834 13.5 23.834C13.1772 23.834 12.8906 23.6274 12.7885 23.3212L11.1571 18.4269L6.26283 16.7955C5.95657 16.6934 5.75 16.4068 5.75 16.084C5.75 15.7612 5.95657 15.4746 6.26283 15.3725L11.1571 13.7411L12.7885 8.84681ZM14.5385 14.5712L13.5 11.4557L12.4615 14.5712C12.3869 14.7951 12.2111 14.9708 11.9872 15.0455L8.87171 16.084L11.9872 17.1225C12.2111 17.1971 12.3869 17.3729 12.4615 17.5968L13.5 20.7123L14.5385 17.5968C14.6131 17.3729 14.7889 17.1971 15.0128 17.1225L18.1283 16.084L15.0128 15.0455C14.7889 14.9708 14.6131 14.7951 14.5385 14.5712ZM23 19.334C22.5858 19.334 22.25 19.6698 22.25 20.084V21.834H20.5C20.0858 21.834 19.75 22.1698 19.75 22.584C19.75 22.9982 20.0858 23.334 20.5 23.334H22.25V25.084C22.25 25.4982 22.5858 25.834 23 25.834C23.4142 25.834 23.75 25.4982 23.75 25.084V23.334H25.5C25.9142 23.334 26.25 22.9982 26.25 22.584C26.25 22.1698 25.9142 21.834 25.5 21.834H23.75V20.084C23.75 19.6698 23.4142 19.334 23 19.334Z" fill="#DCDCFF" fill-opacity="0.2"/>
</svg>
